{"title":"Rick Ross Ft. French Montana &amp; Puff Daddy - Nobody [Explicit","uid":9789043,"size":59613641,"categoryP":"video","categoryS":"music_videos","magnet":"?xt=urn:btih:5da5a1de14ece8891f704b2d39f5cdc094d4325c&amp;dn=Rick+Ross+Ft.+French+Montana+%26amp%3B+Puff+Daddy+-+Nobody+%5BExplicit&amp;tr=udp%3A%2F%2Ftracker.openbittorrent.com%3A80&amp;tr=udp%3A%2F%2Fopen.demonii.com%3A1337&amp;tr=udp%3A%2F%2Ftracker.coppersurfer.tk%3A6969&amp;tr=udp%3A%2F%2Fexodus.desync.com%3A6969","seeders":1,"leechers":0,"uploader":"Sbyky","files":1,"time":1395217638,"description":"\n\nGeneral\nComplete name                            : Rick Ross Ft. French Montana &amp; Puff Daddy - Nobody [Explicit] 720p [Sbyky].MP4\nFormat                                   : MPEG-4\nFormat profile                           : Base Media\nCodec ID                                 : isom\nFile size                                : 56.9 MiB\nDuration                                 : 5mn 54s\nOverall bit rate mode                    : Variable\nOverall bit rate                         : 1 344 Kbps\nEncoded date                             : UTC 2014-03-01 11:00:53\nTagged date                              : UTC 2014-03-01 11:00:53\n\nVideo\nID                                       : 1\nFormat                                   : AVC\nFormat/Info                              : Advanced Video Codec\nFormat profile                           : &lt;a class=&quot;__cf_email__&quot; href=&quot;/cdn-cgi/l/email-protection&quot; data-cfemail=&quot;dd90bcb4b39d91eef3ec&quot;&gt;[email&amp;#160;protected]&lt;/a&gt;&lt;script cf-hash='f9e31' type=&quot;text/javascript&quot;&gt;\n/* &lt;![CDATA[ */!function(){try{var t=&quot;currentScript&quot;in document?document.currentScript:function(){for(var t=document.getElementsByTagName(&quot;script&quot;),e=t.length;e--;)if(t[e].getAttribute(&quot;cf-hash&quot;))return t[e]}();if(t&amp;&amp;t.previousSibling){var e,r,n,i,c=t.previousSibling,a=c.getAttribute(&quot;data-cfemail&quot;);if(a){for(e=&quot;&quot;,r=parseInt(a.substr(0,2),16),n=2;a.length-n;n+=2)i=parseInt(a.substr(n,2),16)^r,e+=String.fromCharCode(i);e=document.createTextNode(e),c.parentNode.replaceChild(e,c)}}}catch(u){}}();/* ]]&gt; */&lt;/script&gt;\nFormat settings, CABAC                   : Yes\nFormat settings, ReFrames                : 3 frames\nCodec ID                                 : avc1\nCodec ID/Info                            : Advanced Video Coding\nDuration                                 : 5mn 54s\nDuration_LastFrame                       : -40ms\nBit rate                                 : 1 215 Kbps\nWidth                                    : 1 280 pixels\nHeight                                   : 720 pixels\nDisplay aspect ratio                     : 16:9\nFrame rate mode                          : Constant\nFrame rate                               : 23.976 fps\nColor space                              : YUV\nChroma subsampling                       : 4:2:0\nBit depth                                : 8 bits\nScan type                                : Progressive\nBits/(Pixel*Frame)                       : 0.055\nStream size                              : 51.4 MiB (90%)\nEncoded date                             : UTC 2014-03-01 11:00:53\nTagged date                              : UTC 2014-03-01 11:00:53\n\nAudio\nID                                       : 2\nFormat                                   : AAC\nFormat/Info                              : Advanced Audio Codec\nFormat profile                           : LC\nCodec ID                                 : 40\nDuration                                 : 5mn 54s\nBit rate mode                            : Variable\nBit rate                                 : 126 Kbps\nChannel(s)                               : 2 channels\nChannel positions                        : Front: L R\nSampling rate                            : 44.1 KHz\nCompression mode                         : Lossy\nStream size                              : 5.31 MiB (9%)\nEncoded date                             : UTC 2014-03-01 11:00:12\nTagged date                              : UTC 2014-03-01 11:00:12\n\nShared By Sbyky\n","torrent":{"xt":"urn:btih:5da5a1de14ece8891f704b2d39f5cdc094d4325c","amp;dn":"Rick+Ross+Ft.+French+Montana+%26amp%3B+Puff+Daddy+-+Nobody+%5BExplicit","amp;tr":["udp%3A%2F%2Ftracker.openbittorrent.com%3A80","udp%3A%2F%2Fopen.demonii.com%3A1337","udp%3A%2F%2Ftracker.coppersurfer.tk%3A6969","udp%3A%2F%2Fexodus.desync.com%3A6969"],"infoHash":"5da5a1de14ece8891f704b2d39f5cdc094d4325c","infoHashBuffer":{"type":"Buffer","data":[93,165,161,222,20,236,232,137,31,112,75,45,57,245,205,192,148,212,50,92]},"announce":[],"urlList":[]}}